<svg xmlns="http://www.w3.org/2000/svg" xmlns:svg="http://www.w3.org/2000/svg" xmlns:xlink="http://www.w3.org/1999/xlink" id="svg2" x="0" y="0" version="1.1" viewBox="-467 269 24 24" xml:space="preserve" style="enable-background:new -467 269 24 24"><style type="text/css">.st0,.st1{opacity:.99;fill:#21bf00;enable-background:new}.st1{opacity:.5;fill:none;stroke:#005485;stroke-width:.25;stroke-miterlimit:10}.st2{fill:#2f78c7;fill-opacity:.9922}.st3{fill:#fff}.st4{opacity:.5;fill:none;stroke:url(#path8655-6-0-9-5_1_);stroke-width:.5;stroke-miterlimit:10;enable-background:new}</style><path id="path2555-7-8-5-0" d="M-455,270.5c-5.8,0-10.5,4.7-10.5,10.5s4.7,10.5,10.5,10.5s10.5-4.7,10.5-10.5	S-449.2,270.5-455,270.5z" class="st0"/><path id="path2555-7-8-5" d="M-455,270.5c-5.8,0-10.5,4.7-10.5,10.5s4.7,10.5,10.5,10.5s10.5-4.7,10.5-10.5	S-449.2,270.5-455,270.5z" class="st1"/><path id="path2922-6-6-0-9-4" d="M-451,275.6l2,1.8l-6.8,8.9l-5.2-4.5l1.7-2.3l3.1,2.7	C-456.2,282.2-451,275.6-451,275.6z" class="st2"/><path id="path2922-6-6-0-9" d="M-451,275.6l2,1.8l-6.8,8.9l-5.2-4.5l1.7-2.3l3.1,2.7C-456.2,282.2-451,275.6-451,275.6z" class="st3"/><linearGradient id="path8655-6-0-9-5_1_" x1="-454.906" x2="-454.906" y1="270.563" y2="291.563" gradientUnits="userSpaceOnUse"><stop offset="0" style="stop-color:#fff"/><stop offset=".508" style="stop-color:#fff;stop-opacity:.2353"/><stop offset=".835" style="stop-color:#fff;stop-opacity:.1569"/><stop offset="1" style="stop-color:#fff;stop-opacity:.3922"/></linearGradient><path id="path8655-6-0-9-5" d="M-444.5,281.1c0,5.7-4.7,10.3-10.4,10.3c-5.7,0-10.4-4.6-10.4-10.3	c0-5.7,4.7-10.2,10.4-10.2C-449.2,270.8-444.5,275.4-444.5,281.1L-444.5,281.1z" class="st4"/></svg>