<svg xmlns="http://www.w3.org/2000/svg" xmlns:xlink="http://www.w3.org/1999/xlink" version="1.1" viewBox="0 0 48 48"><defs><linearGradient id="k" x1="16.626" x2="20.055" y1="15.298" y2="24.628" gradientTransform="matrix(.82498024 0 0 1.3012336 4.1618797 -1.4329212)" gradientUnits="userSpaceOnUse"><stop offset="0" stop-color="#fff"/><stop offset="1" stop-color="#fff" stop-opacity="0"/></linearGradient><linearGradient id="l" x1="24" x2="24" y1="5" y2="43" gradientTransform="translate(3.7e-6,1.00001)" gradientUnits="userSpaceOnUse"><stop offset="0" stop-color="#fff"/><stop offset=".063" stop-color="#fff" stop-opacity=".235"/><stop offset=".951" stop-color="#fff" stop-opacity=".157"/><stop offset="1" stop-color="#fff" stop-opacity=".392"/></linearGradient><radialGradient id="c" cx="7.496" cy="8.45" r="20" gradientTransform="matrix(1.9428467e-8,2.33699,-2.4722567,-4.3056275e-8,44.890104,-11.434799)" gradientUnits="userSpaceOnUse"><stop offset="0" stop-color="#90dbec"/><stop offset=".262" stop-color="#55c1ec"/><stop offset=".705" stop-color="#3689e6"/><stop offset="1" stop-color="#2b63a0"/></radialGradient><linearGradient id="m" x1="24" x2="24" y1="44" y2="3.899" gradientTransform="translate(1.2e-6,1)" gradientUnits="userSpaceOnUse"><stop offset="0" stop-color="#185f9a"/><stop offset="1" stop-color="#599ec9"/></linearGradient><radialGradient id="b" cx="4.993" cy="43.5" r="2.5" gradientTransform="matrix(2.003784,0,0,1.4,27.98813,-17.4)" gradientUnits="userSpaceOnUse"><stop offset="0" stop-color="#181818"/><stop offset="1" stop-color="#181818" stop-opacity="0"/></radialGradient><radialGradient id="a" cx="4.993" cy="43.5" r="2.5" gradientTransform="matrix(2.003784,0,0,1.4,-20.01187,-104.4)" gradientUnits="userSpaceOnUse"><stop offset="0" stop-color="#181818"/><stop offset="1" stop-color="#181818" stop-opacity="0"/></radialGradient><linearGradient id="j" x1="25.058" x2="25.058" y1="47.028" y2="39.999" gradientUnits="userSpaceOnUse"><stop offset="0" stop-color="#181818" stop-opacity="0"/><stop offset=".5" stop-color="#181818"/><stop offset="1" stop-color="#181818" stop-opacity="0"/></linearGradient><linearGradient id="i" x1="-34.653" x2="-34.653" y1="18.764" y2="-32.885" gradientTransform="matrix(-2.1875 0 0 -.75 -38.737278 17.75)" gradientUnits="userSpaceOnUse"><stop offset="0" stop-color="#365a7c"/><stop offset="1" stop-color="#5ea1ca"/></linearGradient><linearGradient id="h" x1="-24.374" x2="-24.374" y1="19.095" y2="-31.818" gradientTransform="matrix(-2.1306817 0 0 -.77272726 -37.081766 18.181818)" gradientUnits="userSpaceOnUse"><stop offset="0" stop-color="#365a7c"/><stop offset="1" stop-color="#5ea1ca"/></linearGradient><linearGradient id="g" x1="-23.286" x2="-23.286" y1="19.124" y2="-30.743" gradientTransform="matrix(-2.0833333 0 0 -.79166666 -35.70217 18.541666)" gradientUnits="userSpaceOnUse"><stop offset="0" stop-color="#365a7c"/><stop offset="1" stop-color="#5ea1ca"/></linearGradient><linearGradient id="f" x1="-34.653" x2="-34.653" y1="18.764" y2="-32.885" gradientTransform="matrix(-1.4 0 0 .75 -16.791858 30.25)" gradientUnits="userSpaceOnUse"><stop offset="0" stop-color="#365a7c"/><stop offset="1" stop-color="#5ea1ca"/></linearGradient><linearGradient id="e" x1="-24.374" x2="-24.374" y1="19.095" y2="-31.818" gradientTransform="matrix(-1.3636363 0 0 .77272726 -15.73233 29.818182)" gradientUnits="userSpaceOnUse"><stop offset="0" stop-color="#365a7c"/><stop offset="1" stop-color="#5ea1ca"/></linearGradient><linearGradient id="d" x1="-23.286" x2="-23.286" y1="19.124" y2="-30.743" gradientTransform="matrix(-1.3333333 0 0 .79166666 -14.849389 29.458334)" gradientUnits="userSpaceOnUse"><stop offset="0" stop-color="#365a7c"/><stop offset="1" stop-color="#5ea1ca"/></linearGradient></defs><g opacity=".4" transform="matrix(1.1578952 0 0 .57142859 -3.789484 19.142856)"><rect width="5" height="7" x="38" y="40" fill="url(#b)"/><rect width="5" height="7" x="-10" y="-47" fill="url(#a)" transform="scale(-1)"/><rect width="28" height="7" x="10" y="40" fill="url(#j)"/></g><rect width="39" height="39" x="4.5" y="5.5" fill="url(#c)" stroke="url(#m)" stroke-linecap="round" stroke-linejoin="round" rx="2" ry="2" style="color:#000"/><rect width="37" height="37" x="5.5" y="6.5" fill="none" stroke="url(#l)" stroke-linecap="round" stroke-linejoin="round" opacity=".5" rx="1" ry="1"/><g><path fill="url(#k)" fill-rule="evenodd" d="m6.2169167 6c-0.6791901 0-1.2169167 0.9124652-1.2169167 1.8l0.0126445 22.2c1.0931678-0.024166 37.1576165-8.846908 37.9873555-9.271291v-12.928709c0-0.6784043-0.531183-1.8-1.11929-1.8h-35.6637886z" opacity=".2"/><g><path style="color:#000" fill="url(#d)" d="m9.40625 35c-0.7814478 0-1.40625 0.624802-1.40625 1.40625v7.59375h32v-7.59375c0-0.781448-0.624802-1.40625-1.40625-1.40625h-29.1875z" opacity=".05"/><path style="color:#000" fill="url(#e)" d="m10.28125 36c-0.7163271 0-1.28125 0.564923-1.28125 1.28125v6.71875h30v-6.71875c0-0.716327-0.564923-1.28125-1.28125-1.28125h-27.4375z" opacity=".1"/><path style="color:#000" fill="url(#f)" d="m11.1875 37c-0.651206 0-1.1875 0.536294-1.1875 1.1875v5.8125h28v-5.8125c0-0.651206-0.536294-1.1875-1.1875-1.1875h-25.625z" opacity=".25"/><path style="color:#000" fill="#f7f7f7" stroke="#fff" stroke-width=".985" d="m35.507286 38.492714h-23.014572c-0.897076-0.01757-1 0.422115-1 1.007286v4h25.014572v-4.007286c0.01298-0.537526-0.462292-1.012936-1-1z"/><path style="color:#000" fill="url(#g)" d="m6.5 6c-0.831 0-1.5 0.669-1.5 1.5v5.5h38v-5.5c0-0.831-0.669-1.5-1.5-1.5h-35z" opacity=".05"/><path style="color:#000" fill="url(#h)" d="m6.5 6c-0.831 0-1.5 0.669-1.5 1.5v4.5h38v-4.5c0-0.831-0.669-1.5-1.5-1.5h-35z" opacity=".1"/><path style="color:#000" fill="url(#i)" d="m6.5 6c-0.831 0-1.5 0.669-1.5 1.5v3.5h38v-3.5c0-0.831-0.669-1.5-1.5-1.5h-35z" opacity=".25"/><path style="color:#000" fill="#f7f7f7" stroke="#fff" stroke-width=".985" d="m41.027196 6.5005086h-34.0547772c-1.3274079-0.01757-1.479705 0.422115-1.479705 1.007286v1.9922054h37.0141872v-1.9994914c0.01921-0.537526-0.684056-1.012936-1.479705-1z"/></g></g></svg>