<svg xmlns="http://www.w3.org/2000/svg" xmlns:xlink="http://www.w3.org/1999/xlink" version="1.1" viewBox="0 0 48 48"><defs><linearGradient id="e" x1="16.626" x2="20.055" y1="15.298" y2="24.628" gradientTransform="matrix(.82498024 0 0 1.3012336 4.1618797 -1.4329212)" gradientUnits="userSpaceOnUse"><stop offset="0" stop-color="#fff"/><stop offset="1" stop-color="#fff" stop-opacity="0"/></linearGradient><linearGradient id="o" x1="24" x2="24" y1="5" y2="43" gradientTransform="translate(3.7e-6,1.00001)" gradientUnits="userSpaceOnUse"><stop offset="0" stop-color="#fff"/><stop offset=".063" stop-color="#fff" stop-opacity=".235"/><stop offset=".951" stop-color="#fff" stop-opacity=".157"/><stop offset="1" stop-color="#fff" stop-opacity=".392"/></linearGradient><radialGradient id="c" cx="7.496" cy="8.45" r="20" gradientTransform="matrix(1.9428467e-8,2.33699,-2.4722567,-4.3056275e-8,44.890104,-11.434799)" gradientUnits="userSpaceOnUse"><stop offset="0" stop-color="#90dbec"/><stop offset=".262" stop-color="#55c1ec"/><stop offset=".705" stop-color="#3689e6"/><stop offset="1" stop-color="#2b63a0"/></radialGradient><linearGradient id="p" x1="24" x2="24" y1="44" y2="3.899" gradientTransform="translate(1.2e-6,1)" gradientUnits="userSpaceOnUse"><stop offset="0" stop-color="#185f9a"/><stop offset="1" stop-color="#599ec9"/></linearGradient><radialGradient id="b" cx="4.993" cy="43.5" r="2.5" gradientTransform="matrix(2.003784,0,0,1.4,27.98813,-17.4)" gradientUnits="userSpaceOnUse"><stop offset="0" stop-color="#181818"/><stop offset="1" stop-color="#181818" stop-opacity="0"/></radialGradient><radialGradient id="a" cx="4.993" cy="43.5" r="2.5" gradientTransform="matrix(2.003784,0,0,1.4,-20.01187,-104.4)" gradientUnits="userSpaceOnUse"><stop offset="0" stop-color="#181818"/><stop offset="1" stop-color="#181818" stop-opacity="0"/></radialGradient><linearGradient id="d" x1="25.058" x2="25.058" y1="47.028" y2="39.999" gradientUnits="userSpaceOnUse"><stop offset="0" stop-color="#181818" stop-opacity="0"/><stop offset=".5" stop-color="#181818"/><stop offset="1" stop-color="#181818" stop-opacity="0"/></linearGradient><linearGradient id="n" x1="19.875" x2="19.875" y1="44.52" y2="5.25" gradientTransform="matrix(.79166667 0 0 .79166667 -9.433175 1.4583333)" gradientUnits="userSpaceOnUse"><stop offset="0" stop-color="#365a7c"/><stop offset="1" stop-color="#5ea1ca"/></linearGradient><linearGradient id="m" x1="19.875" x2="19.875" y1="44.52" y2="5.25" gradientTransform="matrix(.77272727 0 0 .77272727 -9.985013 1.8181818)" gradientUnits="userSpaceOnUse"><stop offset="0" stop-color="#365a7c"/><stop offset="1" stop-color="#5ea1ca"/></linearGradient><linearGradient id="l" x1="19.875" x2="19.875" y1="44.52" y2="5.25" gradientTransform="matrix(.75 0 0 .75 -10.647219 2.25)" gradientUnits="userSpaceOnUse"><stop offset="0" stop-color="#365a7c"/><stop offset="1" stop-color="#5ea1ca"/></linearGradient><linearGradient id="k" x1="19.875" x2="19.875" y1="44.52" y2="5.25" gradientTransform="matrix(.79166667 0 0 .79166667 38.566825 19.458333)" gradientUnits="userSpaceOnUse"><stop offset="0" stop-color="#365a7c"/><stop offset="1" stop-color="#5ea1ca"/></linearGradient><linearGradient id="j" x1="19.875" x2="19.875" y1="44.52" y2="5.25" gradientTransform="matrix(.77272727 0 0 .77272727 38.014987 19.818182)" gradientUnits="userSpaceOnUse"><stop offset="0" stop-color="#365a7c"/><stop offset="1" stop-color="#5ea1ca"/></linearGradient><linearGradient id="i" x1="19.875" x2="19.875" y1="44.52" y2="5.25" gradientTransform="matrix(.75 0 0 .75 37.352781 20.25)" gradientUnits="userSpaceOnUse"><stop offset="0" stop-color="#365a7c"/><stop offset="1" stop-color="#5ea1ca"/></linearGradient><linearGradient id="h" x1="19.875" x2="19.875" y1="44.52" y2="5.25" gradientTransform="matrix(.79166667 0 0 1.5 7.566825 -3.5000006)" gradientUnits="userSpaceOnUse"><stop offset="0" stop-color="#365a7c"/><stop offset="1" stop-color="#5ea1ca"/></linearGradient><linearGradient id="g" x1="19.875" x2="19.875" y1="44.52" y2="5.25" gradientTransform="matrix(.77272727 0 0 1.5454545 7.014987 -4.363636)" gradientUnits="userSpaceOnUse"><stop offset="0" stop-color="#365a7c"/><stop offset="1" stop-color="#5ea1ca"/></linearGradient><linearGradient id="f" x1="19.875" x2="19.875" y1="44.52" y2="5.25" gradientTransform="matrix(.75 0 0 1.6 6.352781 -5.4)" gradientUnits="userSpaceOnUse"><stop offset="0" stop-color="#365a7c"/><stop offset="1" stop-color="#5ea1ca"/></linearGradient></defs><g opacity=".4" transform="matrix(1.1578952 0 0 .57142859 -3.789484 19.142856)"><rect width="5" height="7" x="38" y="40" fill="url(#b)"/><rect width="5" height="7" x="-10" y="-47" fill="url(#a)" transform="scale(-1)"/><rect width="28" height="7" x="10" y="40" fill="url(#d)"/></g><rect width="39" height="39" x="4.5" y="5.5" fill="url(#c)" stroke="url(#p)" stroke-linecap="round" stroke-linejoin="round" rx="2" ry="2" style="color:#000"/><rect width="37" height="37" x="5.5" y="6.5" fill="none" stroke="url(#o)" stroke-linecap="round" stroke-linejoin="round" opacity=".5" rx="1" ry="1"/><path fill="url(#e)" fill-rule="evenodd" d="m6.2169167 6c-0.6791901 0-1.2169167 0.9124652-1.2169167 1.8l0.0126445 22.2c1.0931678-0.024166 37.1576165-8.846908 37.9873555-9.271291v-12.928709c0-0.6784043-0.531183-1.8-1.11929-1.8h-35.6637886z" opacity=".2"/><g transform="matrix(0,-1,1,0,-1,49)"><rect style="color:#000" width="19" height="19" x="-42" y="7" fill="url(#n)" opacity=".05" rx="1.411" ry="1.411" transform="scale(-1,1)"/><rect style="color:#000" width="17" height="17" x="-41" y="8" fill="url(#m)" opacity=".1" rx="1.293" ry="1.293" transform="scale(-1,1)"/><rect style="color:#000" width="15" height="15" x="-40" y="9" fill="url(#l)" opacity=".25" rx="1.175" ry="1.175" transform="scale(-1,1)"/><rect width="12.015" height="12.015" x="-38.507" y="10.493" fill="#f7f7f7" stroke="#fff" style="color:#000" stroke-width=".985" rx="1" ry="1" transform="scale(-1,1)"/><g transform="matrix(-1,0,0,1,48,-1)"><rect style="color:#000" width="19" height="19" x="6" y="25" fill="url(#k)" opacity=".05" rx="1.411" ry="1.411"/><rect style="color:#000" width="17" height="17" x="7" y="26" fill="url(#j)" opacity=".1" rx="1.293" ry="1.293"/><rect style="color:#000" width="15" height="15" x="8" y="27" fill="url(#i)" opacity=".25" rx="1.175" ry="1.175"/><rect style="color:#000" width="12.015" height="12.015" x="9.493" y="28.493" fill="#f7f7f7" stroke="#fff" stroke-width=".985" rx="1" ry="1"/></g><rect style="color:#000" width="19" height="36" x="-25" y="7" fill="url(#h)" opacity=".05" rx="1.411" ry="1.411" transform="scale(-1,1)"/><rect style="color:#000" width="17" height="34" x="-24" y="8" fill="url(#g)" opacity=".1" rx="1.293" ry="1.293" transform="scale(-1,1)"/><rect style="color:#000" width="15" height="32" x="-23" y="9" fill="url(#f)" opacity=".25" rx="1.175" ry="1.175" transform="scale(-1,1)"/><rect width="12.015" height="29.015" x="-21.507" y="10.493" fill="#f7f7f7" stroke="#fff" style="color:#000" stroke-width=".985" rx="1" ry="1" transform="scale(-1,1)"/></g></svg>