<svg xmlns="http://www.w3.org/2000/svg" xmlns:xlink="http://www.w3.org/1999/xlink" version="1.1" viewBox="0 0 48 48"><defs><linearGradient id="f" x1="16.626" x2="20.055" y1="15.298" y2="24.628" gradientTransform="matrix(.82498024 0 0 1.3012336 4.1618797 -1.4329212)" gradientUnits="userSpaceOnUse"><stop offset="0" stop-color="#fff"/><stop offset="1" stop-color="#fff" stop-opacity="0"/></linearGradient><linearGradient id="i" x1="24" x2="24" y1="5" y2="43" gradientTransform="translate(3.7e-6,1.00001)" gradientUnits="userSpaceOnUse"><stop offset="0" stop-color="#fff"/><stop offset=".063" stop-color="#fff" stop-opacity=".235"/><stop offset=".951" stop-color="#fff" stop-opacity=".157"/><stop offset="1" stop-color="#fff" stop-opacity=".392"/></linearGradient><radialGradient id="d" cx="7.496" cy="8.45" r="20" gradientTransform="matrix(1.9428467e-8,2.33699,-2.4722567,-4.3056275e-8,44.890104,-11.434799)" gradientUnits="userSpaceOnUse"><stop offset="0" stop-color="#90dbec"/><stop offset=".262" stop-color="#55c1ec"/><stop offset=".705" stop-color="#3689e6"/><stop offset="1" stop-color="#2b63a0"/></radialGradient><linearGradient id="j" x1="24" x2="24" y1="44" y2="3.899" gradientTransform="translate(1.2e-6,1)" gradientUnits="userSpaceOnUse"><stop offset="0" stop-color="#185f9a"/><stop offset="1" stop-color="#599ec9"/></linearGradient><radialGradient id="c" cx="4.993" cy="43.5" r="2.5" gradientTransform="matrix(2.003784,0,0,1.4,27.98813,-17.4)" gradientUnits="userSpaceOnUse"><stop offset="0" stop-color="#181818"/><stop offset="1" stop-color="#181818" stop-opacity="0"/></radialGradient><radialGradient id="b" cx="4.993" cy="43.5" r="2.5" gradientTransform="matrix(2.003784,0,0,1.4,-20.01187,-104.4)" gradientUnits="userSpaceOnUse"><stop offset="0" stop-color="#181818"/><stop offset="1" stop-color="#181818" stop-opacity="0"/></radialGradient><linearGradient id="e" x1="25.058" x2="25.058" y1="47.028" y2="39.999" gradientUnits="userSpaceOnUse"><stop offset="0" stop-color="#181818" stop-opacity="0"/><stop offset=".5" stop-color="#181818"/><stop offset="1" stop-color="#181818" stop-opacity="0"/></linearGradient><linearGradient id="a" x1="19.875" x2="19.875" y1="44.52" y2="5.25" gradientTransform="translate(47.137042)" gradientUnits="userSpaceOnUse"><stop offset="0" stop-color="#365a7c"/><stop offset="1" stop-color="#5ea1ca"/></linearGradient><linearGradient id="h" x1="19.875" x2="19.875" y1="44.52" y2="5.25" gradientTransform="translate(59.137042,12)" gradientUnits="userSpaceOnUse"><stop offset="0" stop-color="#365a7c"/><stop offset="1" stop-color="#5ea1ca"/></linearGradient><linearGradient id="g" x1="19.875" x2="19.875" y1="44.52" y2="5.25" gradientTransform="translate(53.137042,6)" gradientUnits="userSpaceOnUse"><stop offset="0" stop-color="#365a7c"/><stop offset="1" stop-color="#5ea1ca"/></linearGradient></defs><g opacity=".4" transform="matrix(1.1578952 0 0 .57142859 -3.789484 19.142856)"><rect width="5" height="7" x="38" y="40" fill="url(#c)"/><rect width="5" height="7" x="-10" y="-47" fill="url(#b)" transform="scale(-1)"/><rect width="28" height="7" x="10" y="40" fill="url(#e)"/></g><rect width="39" height="39" x="4.5" y="5.5" fill="url(#d)" stroke="url(#j)" stroke-linecap="round" stroke-linejoin="round" rx="2" ry="2" style="color:#000"/><rect width="37" height="37" x="5.5" y="6.5" fill="none" stroke="url(#i)" stroke-linecap="round" stroke-linejoin="round" opacity=".5" rx="1" ry="1"/><g><rect style="color:#000" width="24" height="24" x="6" y="7" fill="url(#a)" opacity=".05" rx="1.411" ry="1.411"/><path fill="url(#f)" fill-rule="evenodd" d="m6.2169167 6c-0.6791901 0-1.2169167 0.9124652-1.2169167 1.8l0.0126445 22.2c1.0931678-0.024166 37.1576165-8.846908 37.9873555-9.271291v-12.928709c0-0.6784043-0.531183-1.8-1.11929-1.8h-35.6637886z" opacity=".2"/><g><rect style="color:#000" width="22" height="22" x="7" y="8" fill="url(#a)" opacity=".1" rx="1.293" ry="1.293"/><rect style="color:#000" width="20" height="20" x="8" y="9" fill="url(#a)" opacity=".25" rx="1.175" ry="1.175"/><rect style="color:#000" width="17.015" height="17.015" x="9.493" y="10.493" fill="#f7f7f7" stroke="#fff" stroke-width=".985" rx="1" ry="1"/></g></g><g fill="url(#g)"><rect style="color:#000" width="24" height="24" x="12" y="13" opacity=".05" rx="1.411" ry="1.411"/><rect style="color:#000" width="22" height="22" x="13" y="14" opacity=".1" rx="1.293" ry="1.293"/><rect style="color:#000" width="20" height="20" x="14" y="15" opacity=".25" rx="1.175" ry="1.175"/></g><rect style="color:#000" width="17.015" height="17.015" x="15.493" y="16.493" fill="#f7f7f7" stroke="#fff" stroke-width=".985" rx="1" ry="1"/><g><g fill="url(#h)"><rect style="color:#000" width="24" height="24" x="18" y="19" opacity=".05" rx="1.411" ry="1.411"/><rect style="color:#000" width="22" height="22" x="19" y="20" opacity=".1" rx="1.293" ry="1.293"/><rect style="color:#000" width="20" height="20" x="20" y="21" opacity=".25" rx="1.175" ry="1.175"/></g><rect style="color:#000" width="17.015" height="17.015" x="21.493" y="22.493" fill="#f7f7f7" stroke="#fff" stroke-width=".985" rx="1" ry="1"/></g></svg>