<svg xmlns="http://www.w3.org/2000/svg" xmlns:xlink="http://www.w3.org/1999/xlink" viewBox="0 0 48 48"><defs><linearGradient id="a"><stop offset="0"/><stop offset="1" stop-opacity="0"/></linearGradient><linearGradient id="g" x1="32.085" x2="32.085" y1="-14.402" y2="-5.563" gradientTransform="matrix(.9788196 0 0 .7154223 -8.5008021 52.112719)" gradientUnits="userSpaceOnUse"><stop offset="0" stop-opacity="0"/><stop offset=".5"/><stop offset="1" stop-opacity="0"/></linearGradient><radialGradient id="c" cx="51.438" cy="-12.203" r="2.172" gradientTransform="matrix(1.9576392,-8.146468e-7,6.6614241e-7,1.4565793,-59.017557,62.738067)" gradientUnits="userSpaceOnUse" xlink:href="#a"/><radialGradient id="b" cx="51.438" cy="-12.203" r="2.172" gradientTransform="matrix(-1.9576392,-9.2540676e-8,-1.2888861e-7,1.4565793,110.01781,62.73803)" gradientUnits="userSpaceOnUse" xlink:href="#a"/><linearGradient id="f" x1="9.5" x2="9.5" y1="16.264" y2="13.409" gradientTransform="matrix(1.2605424,0,0,1.2058553,-7.4733927,-4.9459439)" gradientUnits="userSpaceOnUse"><stop offset="0" stop-color="#fff"/><stop offset="1" stop-color="#fff" stop-opacity=".469"/></linearGradient><linearGradient id="e" x1="23.069" x2="23.069" y1="6.799" y2="12.403" gradientTransform="matrix(1.2446306,0,0,1.2707947,-7.0741541,-5.3017616)" gradientUnits="userSpaceOnUse"><stop offset="0" stop-color="#3465a4"/><stop offset="1" stop-color="#729fcf"/></linearGradient><linearGradient id="d" x1="24.926" x2="24.926" y1="40" y2="19.539" gradientTransform="matrix(1.2446306,0,0,1.1767765,-7.0741541,-3.982654)" gradientUnits="userSpaceOnUse"><stop offset="0" stop-color="#d3d7cf"/><stop offset="1" stop-color="#eeeeec"/></linearGradient></defs><g fill-rule="evenodd" transform="matrix(1.0842065,0,0,1.3618401,-3.702941,-19.378566)"><rect width="32.357" height="6.323" x="9.322" y="41.809" fill="url(#g)" opacity=".3"/><path fill="url(#c)" d="m41.6785 41.799698v6.327016c2.343798-0.023886 4.251748-1.421401 4.251748-3.152329 0-1.730927-1.907949-3.150801-4.251748-3.174687z" opacity=".3"/><path fill="url(#b)" d="m9.3217476 41.799698v6.327016c-2.3437982-0.023886-4.2517476-1.421401-4.2517476-3.152329 0-1.730927 1.9079484-3.150801 4.2517476-3.174687z" opacity=".3"/></g><g><rect width="41.073" height="35.892" x="3.505" y="6.608" fill="url(#d)" stroke="#888a85" stroke-width="1" rx="2" ry="2"/><path fill="url(#e)" stroke="#204a87" stroke-width="1" d="m3.505204 12.527912v-4.4863223c0-1.4080405 1.1102103-2.5415895 2.489261-2.5415895h36.094285c1.37905 0 2.489261 1.133549 2.489261 2.5415895v4.4863223"/><rect width="39.077" height="34.97" x="4.502" y="6.51" fill="none" stroke="url(#f)" stroke-width="1" opacity=".8" rx="1.511" ry="1.511"/></g></svg>