<svg xmlns="http://www.w3.org/2000/svg" xmlns:svg="http://www.w3.org/2000/svg" id="svg4306" width="24" height="24" version="1.1" style="enable-background:new"><defs id="defs4308"><linearGradient id="linearGradient3770"><stop style="stop-color:#000;stop-opacity:.62827224" id="stop3772" offset="0"/><stop style="stop-color:#000;stop-opacity:.49803922" id="stop3774" offset="1"/></linearGradient><linearGradient id="linearGradient4882"><stop style="stop-color:#fff;stop-opacity:1" id="stop4884" offset="0"/><stop style="stop-color:#fff;stop-opacity:0" id="stop4886" offset="1"/></linearGradient><linearGradient id="linearGradient3784-6"><stop style="stop-color:#fff;stop-opacity:.21568628" id="stop3786-4" offset="0"/><stop style="stop-color:#fff;stop-opacity:0" id="stop3788-6" offset="1"/></linearGradient><linearGradient id="linearGradient4892"><stop id="stop4894" offset="0" style="stop-color:#2f3a42;stop-opacity:1"/><stop id="stop4896" offset="1" style="stop-color:#1d242a;stop-opacity:1"/></linearGradient><linearGradient id="linearGradient4882-4"><stop id="stop4884-9" offset="0" style="stop-color:#728495;stop-opacity:1"/><stop id="stop4886-9" offset="1" style="stop-color:#617c95;stop-opacity:0"/></linearGradient></defs><metadata id="metadata4311"/><g id="layer1" transform="translate(0,-1028.3622)"><g style="display:inline" id="titlebutton-close-active" transform="translate(-437,1218)"><g id="g4927-8-7" transform="translate(-882,-432.63782)" style="display:inline;opacity:1"><g style="display:inline;opacity:1" id="g4490-6-3-7" transform="translate(-103,0)"><g id="g4092-0-2-2-1" transform="translate(58,0)" style="display:inline"><circle style="fill:#f13039;fill-opacity:1;stroke:none;stroke-width:0;stroke-linecap:butt;stroke-linejoin:miter;stroke-miterlimit:4;stroke-dasharray:none;stroke-dashoffset:0;stroke-opacity:1" id="path4068-7-5-4-9" cx="1376" cy="255" r="7"/></g></g><g id="g4778-3-6" transform="translate(1323,246.86719)" style="fill:#fff;fill-opacity:1"><g id="g2996-7-0" transform="matrix(0.75,0,0,0.75,2,2.0546875)" style="fill:#fff;fill-opacity:1"><g id="layer12-4-6-3" transform="translate(-60,-518)" style="fill:#fff;fill-opacity:1"><g id="layer4-4-1-4-1" transform="translate(19,-242)" style="display:inline;fill:#fff;fill-opacity:1"><path id="path10839-9-8-7" d="m 45.001573,764.10442 1,0 c 0.01037,-1.2e-4 0.02079,-4.6e-4 0.03125,0 0.254951,0.0112 0.50987,0.12858 0.6875,0.3125 l 2.28125,2.28125 2.3125,-2.28125 c 0.265625,-0.2305 0.446672,-0.3055 0.6875,-0.3125 l 1,0 0,1 c 0,0.28647 -0.03434,0.55065 -0.25,0.75 l -2.28125,2.28125 2.25,2.25 c 0.188188,0.18817 0.281242,0.45345 0.28125,0.71875 l 0,1 -1,0 c -0.265301,-10e-6 -0.530586,-0.0931 -0.71875,-0.28125 l -2.28125,-2.28125 -2.28125,2.28125 c -0.188164,0.18819 -0.45346,0.28125 -0.71875,0.28125 l -1,0 0,-1 c -3e-6,-0.26529 0.09306,-0.53058 0.28125,-0.71875 l 2.28125,-2.25 -2.28125,-2.28125 c -0.210742,-0.19463 -0.30316,-0.46925 -0.28125,-0.75 l 0,-1 z" style="color:#bebebe;font-style:normal;font-variant:normal;font-weight:400;font-stretch:normal;font-size:medium;line-height:normal;font-family:'Andale Mono';-inkscape-font-specification:'Andale Mono';text-indent:0;text-align:start;text-decoration:none;text-decoration-line:none;letter-spacing:normal;word-spacing:normal;text-transform:none;direction:ltr;block-progression:tb;writing-mode:lr-tb;text-anchor:start;display:inline;overflow:visible;visibility:visible;fill:#fff;fill-opacity:1;fill-rule:nonzero;stroke:none;stroke-width:1.78124988;marker:none;enable-background:new"/></g></g></g></g></g><rect id="rect17883-02" width="16" height="16" x="441" y="-185.638" style="display:inline;opacity:1;fill:none;fill-opacity:1;stroke:none;stroke-width:1;stroke-linecap:butt;stroke-linejoin:miter;stroke-miterlimit:4;stroke-dasharray:none;stroke-dashoffset:0;stroke-opacity:0"/></g></g></svg>