<svg xmlns="http://www.w3.org/2000/svg" xmlns:svg="http://www.w3.org/2000/svg" id="svg4306" width="24" height="24" version="1.1" style="enable-background:new"><defs id="defs4308"><linearGradient id="linearGradient3770"><stop style="stop-color:#000;stop-opacity:.62827224" id="stop3772" offset="0"/><stop style="stop-color:#000;stop-opacity:.49803922" id="stop3774" offset="1"/></linearGradient><linearGradient id="linearGradient4882"><stop style="stop-color:#fff;stop-opacity:1" id="stop4884" offset="0"/><stop style="stop-color:#fff;stop-opacity:0" id="stop4886" offset="1"/></linearGradient><linearGradient id="linearGradient3784-6"><stop style="stop-color:#fff;stop-opacity:.21568628" id="stop3786-4" offset="0"/><stop style="stop-color:#fff;stop-opacity:0" id="stop3788-6" offset="1"/></linearGradient><linearGradient id="linearGradient4892"><stop id="stop4894" offset="0" style="stop-color:#2f3a42;stop-opacity:1"/><stop id="stop4896" offset="1" style="stop-color:#1d242a;stop-opacity:1"/></linearGradient><linearGradient id="linearGradient4882-4"><stop id="stop4884-9" offset="0" style="stop-color:#728495;stop-opacity:1"/><stop id="stop4886-9" offset="1" style="stop-color:#617c95;stop-opacity:0"/></linearGradient></defs><metadata id="metadata4311"/><g id="layer1" transform="translate(0,-1028.3622)"><g style="display:inline" id="titlebutton-close-hover-dark" transform="translate(-538,1218)"><g id="g4927-97-4" transform="translate(-781,-432.63782)" style="display:inline;opacity:1"><g style="display:inline;opacity:1" id="g4490-6-9-1-3" transform="translate(-103,0)"><g id="g4092-0-2-3-4-6" transform="translate(58,0)" style="display:inline"><path style="fill:#d7787d;fill-opacity:1;stroke:none;stroke-width:0;stroke-linecap:butt;stroke-linejoin:miter;stroke-miterlimit:4;stroke-dasharray:none;stroke-dashoffset:0;stroke-opacity:1" id="path4068-7-5-8-2-3" d="m 414,92 a 7,7 0 0 0 -7,7 7,7 0 0 0 7,7 7,7 0 0 0 7,-7 7,7 0 0 0 -7,-7 z m -3,3.921875 0.75,0 c 0.008,-9e-5 0.0156,-3.45e-4 0.0234,0 0.19121,0.0084 0.3824,0.09643 0.51562,0.234375 L 414,97.867188 415.73438,96.15625 c 0.19921,-0.172875 0.335,-0.229125 0.51562,-0.234375 l 0.75,0 0,0.75 c 0,0.214853 -0.0258,0.412987 -0.1875,0.5625 l -1.71094,1.710937 1.6875,1.687498 c 0.14114,0.14113 0.21093,0.34009 0.21094,0.53907 l 0,0.75 -0.75,0 c -0.19898,-1e-5 -0.39794,-0.0698 -0.53906,-0.21094 L 414,100 l -1.71094,1.71094 c -0.14112,0.14114 -0.34009,0.21094 -0.53906,0.21094 l -0.75,0 0,-0.75 c 0,-0.19897 0.0698,-0.39794 0.21094,-0.53907 l 1.71094,-1.687498 -1.71094,-1.710937 C 411.05288,97.088403 410.98357,96.882438 411,96.671875 l 0,-0.75 z" transform="translate(962,156.00002)"/></g></g></g><rect id="rect17883-5-4-2" width="16" height="16" x="542" y="-185.638" style="display:inline;opacity:1;fill:none;fill-opacity:1;stroke:none;stroke-width:1;stroke-linecap:butt;stroke-linejoin:miter;stroke-miterlimit:4;stroke-dasharray:none;stroke-dashoffset:0;stroke-opacity:0"/></g></g></svg>