<svg xmlns="http://www.w3.org/2000/svg" xmlns:svg="http://www.w3.org/2000/svg" id="svg4306" width="24" height="24" version="1.1" style="enable-background:new"><defs id="defs4308"><linearGradient id="linearGradient3770"><stop style="stop-color:#000;stop-opacity:.62827224" id="stop3772" offset="0"/><stop style="stop-color:#000;stop-opacity:.49803922" id="stop3774" offset="1"/></linearGradient><linearGradient id="linearGradient4882"><stop style="stop-color:#fff;stop-opacity:1" id="stop4884" offset="0"/><stop style="stop-color:#fff;stop-opacity:0" id="stop4886" offset="1"/></linearGradient><linearGradient id="linearGradient3784-6"><stop style="stop-color:#fff;stop-opacity:.21568628" id="stop3786-4" offset="0"/><stop style="stop-color:#fff;stop-opacity:0" id="stop3788-6" offset="1"/></linearGradient><linearGradient id="linearGradient4892"><stop id="stop4894" offset="0" style="stop-color:#2f3a42;stop-opacity:1"/><stop id="stop4896" offset="1" style="stop-color:#1d242a;stop-opacity:1"/></linearGradient><linearGradient id="linearGradient4882-4"><stop id="stop4884-9" offset="0" style="stop-color:#728495;stop-opacity:1"/><stop id="stop4886-9" offset="1" style="stop-color:#617c95;stop-opacity:0"/></linearGradient></defs><metadata id="metadata4311"/><g id="layer1" transform="translate(0,-1028.3622)"><g style="display:inline" id="titlebutton-min-hover-dark" transform="translate(-480,1218)"><g id="g4909-3-7" transform="translate(-781,-432.63782)" style="display:inline;opacity:1"><ellipse style="display:inline;opacity:.45;fill:#5f697f;fill-opacity:1;stroke:none;stroke-width:0;stroke-linecap:butt;stroke-linejoin:miter;stroke-miterlimit:4;stroke-dasharray:none;stroke-dashoffset:0;stroke-opacity:1" id="path4068-7-5-9-6-7-2-1-6-1" cx="1273" cy="255" rx="6" ry="6"/><path style="display:inline;opacity:.37000002;fill:#15171c;fill-opacity:1;stroke:none;stroke-width:0;stroke-linecap:butt;stroke-linejoin:miter;stroke-miterlimit:4;stroke-dasharray:none;stroke-dashoffset:0;stroke-opacity:1" id="path4068-7-5-9-6-7-2-5-23-4-3" d="m 1273,248 a 7,7 0 0 0 -7,7 7,7 0 0 0 7,7 7,7 0 0 0 7,-7 7,7 0 0 0 -7,-7 z m 0,1 a 6,6 0 0 1 6,6 6,6 0 0 1 -6,6 6,6 0 0 1 -6,-6 6,6 0 0 1 6,-6 z"/><g style="display:inline;opacity:1;fill:#c0e3ff;fill-opacity:1" id="g4834-0-4-5" transform="translate(1265,247)"><g style="display:inline;fill:#c0e3ff;fill-opacity:1" id="layer12-45-6-2-7" transform="translate(-81.0002,-967)"><path style="color:#000;font-style:normal;font-variant:normal;font-weight:400;font-stretch:normal;font-size:medium;line-height:normal;font-family:Sans;-inkscape-font-specification:Sans;text-indent:0;text-align:start;text-decoration:none;text-decoration-line:none;letter-spacing:normal;word-spacing:normal;text-transform:none;direction:ltr;block-progression:tb;writing-mode:lr-tb;baseline-shift:baseline;text-anchor:start;display:inline;overflow:visible;visibility:visible;opacity:1;fill:#c4c7cc;fill-opacity:1;stroke:none;stroke-width:2;marker:none;enable-background:accumulate" id="rect9057-8-2-3" d="m 86.0002,974 0,2 6,0 0,-2 z"/></g></g></g><rect id="rect17883-11-4-0" width="16" height="16" x="484" y="-185.638" style="display:inline;opacity:1;fill:none;fill-opacity:1;stroke:none;stroke-width:1;stroke-linecap:butt;stroke-linejoin:miter;stroke-miterlimit:4;stroke-dasharray:none;stroke-dashoffset:0;stroke-opacity:0"/></g></g></svg>