<svg xmlns="http://www.w3.org/2000/svg" xmlns:cc="http://web.resource.org/cc/" xmlns:svg="http://www.w3.org/2000/svg" xmlns:xlink="http://www.w3.org/1999/xlink" id="svg2" width="100" height="100" version="1.0"><defs id="defs4"><linearGradient id="linearGradient5989"><stop style="stop-color:#fff;stop-opacity:1" id="stop5991" offset="0"/><stop id="stop2316" offset=".565" style="stop-color:#bcbcbc;stop-opacity:1"/><stop style="stop-color:#838383;stop-opacity:1" id="stop2318" offset=".837"/><stop style="stop-color:#3a3a3a;stop-opacity:1" id="stop5993" offset="1"/></linearGradient><linearGradient id="linearGradient3287"><stop style="stop-color:#fff;stop-opacity:1" id="stop3289" offset="0"/><stop style="stop-color:#7f7f7f;stop-opacity:1" id="stop3291" offset="1"/></linearGradient><linearGradient id="linearGradient2202"><stop style="stop-color:#a5adad;stop-opacity:1" id="stop2204" offset="0"/><stop style="stop-color:#e8f4ed;stop-opacity:1" id="stop2206" offset="1"/></linearGradient><linearGradient id="linearGradient1529"><stop id="stop1531" offset="0" style="stop-color:#a5adad;stop-opacity:1"/><stop id="stop1533" offset="1" style="stop-color:#e8f4ed;stop-opacity:1"/></linearGradient><radialGradient id="radialGradient11602" cx="26.926" cy="40.177" r="1.207" fx="26.926" fy="40.177" gradientUnits="userSpaceOnUse" xlink:href="#linearGradient5989"/><radialGradient id="radialGradient13624" cx="26.926" cy="40.177" r="1.207" fx="26.926" fy="40.177" gradientUnits="userSpaceOnUse" xlink:href="#linearGradient5989"/><radialGradient id="radialGradient13626" cx="26.926" cy="40.177" r="1.207" fx="26.926" fy="40.177" gradientUnits="userSpaceOnUse" xlink:href="#linearGradient5989"/><radialGradient id="radialGradient13628" cx="26.926" cy="40.177" r="1.207" fx="26.926" fy="40.177" gradientUnits="userSpaceOnUse" xlink:href="#linearGradient5989"/><radialGradient id="radialGradient13630" cx="26.926" cy="40.177" r="1.207" fx="26.926" fy="40.177" gradientUnits="userSpaceOnUse" xlink:href="#linearGradient5989"/><radialGradient id="radialGradient13632" cx="26.926" cy="40.177" r="1.207" fx="26.926" fy="40.177" gradientUnits="userSpaceOnUse" xlink:href="#linearGradient5989"/><radialGradient id="radialGradient13634" cx="26.926" cy="40.177" r="1.207" fx="26.926" fy="40.177" gradientUnits="userSpaceOnUse" xlink:href="#linearGradient5989"/><radialGradient id="radialGradient13636" cx="26.926" cy="40.177" r="1.207" fx="26.926" fy="40.177" gradientUnits="userSpaceOnUse" xlink:href="#linearGradient5989"/><radialGradient id="radialGradient13638" cx="26.926" cy="40.177" r="1.207" fx="26.926" fy="40.177" gradientUnits="userSpaceOnUse" xlink:href="#linearGradient5989"/><radialGradient id="radialGradient13640" cx="26.926" cy="40.177" r="1.207" fx="26.926" fy="40.177" gradientUnits="userSpaceOnUse" xlink:href="#linearGradient5989"/><radialGradient id="radialGradient13642" cx="26.926" cy="40.177" r="1.207" fx="26.926" fy="40.177" gradientUnits="userSpaceOnUse" xlink:href="#linearGradient5989"/><radialGradient id="radialGradient13644" cx="26.926" cy="40.177" r="1.207" fx="26.926" fy="40.177" gradientUnits="userSpaceOnUse" xlink:href="#linearGradient5989"/><radialGradient id="radialGradient13648" cx="26.926" cy="40.177" r="1.207" fx="26.926" fy="40.177" gradientUnits="userSpaceOnUse" xlink:href="#linearGradient5989"/><radialGradient id="radialGradient13652" cx="26.926" cy="40.177" r="1.207" fx="26.926" fy="40.177" gradientUnits="userSpaceOnUse" xlink:href="#linearGradient5989"/><radialGradient id="radialGradient13656" cx="26.926" cy="40.177" r="1.207" fx="26.926" fy="40.177" gradientUnits="userSpaceOnUse" xlink:href="#linearGradient5989"/><radialGradient id="radialGradient13660" cx="26.926" cy="40.177" r="1.207" fx="26.926" fy="40.177" gradientUnits="userSpaceOnUse" xlink:href="#linearGradient5989"/><radialGradient id="radialGradient13664" cx="26.926" cy="40.177" r="1.207" fx="26.926" fy="40.177" gradientUnits="userSpaceOnUse" xlink:href="#linearGradient5989"/><radialGradient id="radialGradient13668" cx="26.926" cy="40.177" r="1.207" fx="26.926" fy="40.177" gradientUnits="userSpaceOnUse" xlink:href="#linearGradient5989"/><radialGradient id="radialGradient13672" cx="26.926" cy="40.177" r="1.207" fx="26.926" fy="40.177" gradientUnits="userSpaceOnUse" xlink:href="#linearGradient5989"/><radialGradient id="radialGradient13676" cx="26.926" cy="40.177" r="1.207" fx="26.926" fy="40.177" gradientUnits="userSpaceOnUse" xlink:href="#linearGradient5989"/><radialGradient id="radialGradient13680" cx="26.926" cy="40.177" r="1.207" fx="26.926" fy="40.177" gradientUnits="userSpaceOnUse" xlink:href="#linearGradient5989"/><radialGradient id="radialGradient13684" cx="26.926" cy="40.177" r="1.207" fx="26.926" fy="40.177" gradientUnits="userSpaceOnUse" xlink:href="#linearGradient5989"/><radialGradient id="radialGradient13688" cx="26.926" cy="40.177" r="1.207" fx="26.926" fy="40.177" gradientUnits="userSpaceOnUse" xlink:href="#linearGradient5989"/><radialGradient id="radialGradient13692" cx="26.926" cy="40.177" r="1.207" fx="26.926" fy="40.177" gradientUnits="userSpaceOnUse" xlink:href="#linearGradient5989"/><radialGradient id="radialGradient13696" cx="26.926" cy="40.177" r="1.207" fx="26.926" fy="40.177" gradientUnits="userSpaceOnUse" xlink:href="#linearGradient5989"/><radialGradient id="radialGradient13700" cx="26.926" cy="40.177" r="1.207" fx="26.926" fy="40.177" gradientUnits="userSpaceOnUse" xlink:href="#linearGradient5989"/><radialGradient id="radialGradient13704" cx="26.926" cy="40.177" r="1.207" fx="26.926" fy="40.177" gradientUnits="userSpaceOnUse" xlink:href="#linearGradient5989"/><radialGradient id="radialGradient13708" cx="26.926" cy="40.177" r="1.207" fx="26.926" fy="40.177" gradientUnits="userSpaceOnUse" xlink:href="#linearGradient5989"/><radialGradient id="radialGradient13712" cx="26.926" cy="40.177" r="1.207" fx="26.926" fy="40.177" gradientUnits="userSpaceOnUse" xlink:href="#linearGradient5989"/><radialGradient id="radialGradient13716" cx="26.926" cy="40.177" r="1.207" fx="26.926" fy="40.177" gradientUnits="userSpaceOnUse" xlink:href="#linearGradient5989"/><radialGradient id="radialGradient13720" cx="26.926" cy="40.177" r="1.207" fx="26.926" fy="40.177" gradientUnits="userSpaceOnUse" xlink:href="#linearGradient5989"/><radialGradient id="radialGradient13724" cx="26.926" cy="40.177" r="1.207" fx="26.926" fy="40.177" gradientUnits="userSpaceOnUse" xlink:href="#linearGradient5989"/><radialGradient id="radialGradient13728" cx="26.926" cy="40.177" r="1.207" fx="26.926" fy="40.177" gradientUnits="userSpaceOnUse" xlink:href="#linearGradient5989"/><radialGradient id="radialGradient13732" cx="26.926" cy="40.177" r="1.207" fx="26.926" fy="40.177" gradientUnits="userSpaceOnUse" xlink:href="#linearGradient5989"/><radialGradient id="radialGradient13736" cx="26.926" cy="40.177" r="1.207" fx="26.926" fy="40.177" gradientUnits="userSpaceOnUse" xlink:href="#linearGradient5989"/><radialGradient id="radialGradient13740" cx="26.926" cy="40.177" r="1.207" fx="26.926" fy="40.177" gradientUnits="userSpaceOnUse" xlink:href="#linearGradient5989"/><radialGradient id="radialGradient13744" cx="26.926" cy="40.177" r="1.207" fx="26.926" fy="40.177" gradientUnits="userSpaceOnUse" xlink:href="#linearGradient5989"/><radialGradient id="radialGradient13748" cx="26.926" cy="40.177" r="1.207" fx="26.926" fy="40.177" gradientUnits="userSpaceOnUse" xlink:href="#linearGradient5989"/><radialGradient id="radialGradient13752" cx="26.926" cy="40.177" r="1.207" fx="26.926" fy="40.177" gradientUnits="userSpaceOnUse" xlink:href="#linearGradient5989"/><radialGradient id="radialGradient13756" cx="26.926" cy="40.177" r="1.207" fx="26.926" fy="40.177" gradientUnits="userSpaceOnUse" xlink:href="#linearGradient5989"/><radialGradient id="radialGradient13760" cx="26.926" cy="40.177" r="1.207" fx="26.926" fy="40.177" gradientUnits="userSpaceOnUse" xlink:href="#linearGradient5989"/><radialGradient id="radialGradient13764" cx="26.926" cy="40.177" r="1.207" fx="26.926" fy="40.177" gradientUnits="userSpaceOnUse" xlink:href="#linearGradient5989"/><radialGradient id="radialGradient13768" cx="26.926" cy="40.177" r="1.207" fx="26.926" fy="40.177" gradientUnits="userSpaceOnUse" xlink:href="#linearGradient5989"/><radialGradient id="radialGradient13772" cx="26.926" cy="40.177" r="1.207" fx="26.926" fy="40.177" gradientUnits="userSpaceOnUse" xlink:href="#linearGradient5989"/><radialGradient id="radialGradient13776" cx="26.926" cy="40.177" r="1.207" fx="26.926" fy="40.177" gradientUnits="userSpaceOnUse" xlink:href="#linearGradient5989"/><radialGradient id="radialGradient13780" cx="26.926" cy="40.177" r="1.207" fx="26.926" fy="40.177" gradientUnits="userSpaceOnUse" xlink:href="#linearGradient5989"/><radialGradient id="radialGradient13784" cx="26.926" cy="40.177" r="1.207" fx="26.926" fy="40.177" gradientUnits="userSpaceOnUse" xlink:href="#linearGradient5989"/><radialGradient id="radialGradient13788" cx="26.926" cy="40.177" r="1.207" fx="26.926" fy="40.177" gradientUnits="userSpaceOnUse" xlink:href="#linearGradient5989"/></defs><metadata id="metadata7"/><g id="layer1"><path style="fill:none;fill-opacity:.75;fill-rule:evenodd;stroke:#282d30;stroke-width:1px;stroke-linecap:round;stroke-linejoin:round;stroke-opacity:1" id="path3103" d="M 50,12.439759 L 50,16.656625"/><path id="path4859" d="M 68.761701,17.440042 L 66.653267,21.091954" style="fill:none;fill-opacity:.75;fill-rule:evenodd;stroke:#282d30;stroke-width:.99999964px;stroke-linecap:round;stroke-linejoin:round;stroke-opacity:1"/><path id="path4871" d="M 82.509718,31.15127 L 78.857806,33.259703" style="fill:none;fill-opacity:.75;fill-rule:evenodd;stroke:#282d30;stroke-width:.99999964px;stroke-linecap:round;stroke-linejoin:round;stroke-opacity:1"/><path style="fill:none;fill-opacity:.75;fill-rule:evenodd;stroke:#282d30;stroke-width:1px;stroke-linecap:round;stroke-linejoin:round;stroke-opacity:1" id="path4877" d="M 87.560201,49.899553 L 83.343335,49.899553"/><path id="path4883" d="M 82.559945,68.6613 L 78.90803,66.552867" style="fill:none;fill-opacity:.75;fill-rule:evenodd;stroke:#282d30;stroke-width:1.00000048px;stroke-linecap:round;stroke-linejoin:round;stroke-opacity:1"/><path style="fill:none;fill-opacity:.75;fill-rule:evenodd;stroke:#282d30;stroke-width:1.00000107px;stroke-linecap:round;stroke-linejoin:round;stroke-opacity:1" id="path4889" d="M 68.848708,82.409315 L 66.740271,78.7574"/><path id="path4895" d="M 50.100443,87.459817 L 50.100441,83.242947" style="fill:none;fill-opacity:.75;fill-rule:evenodd;stroke:#282d30;stroke-width:1.00000095px;stroke-linecap:round;stroke-linejoin:round;stroke-opacity:1"/><path style="fill:none;fill-opacity:.75;fill-rule:evenodd;stroke:#282d30;stroke-width:1.00000143px;stroke-linecap:round;stroke-linejoin:round;stroke-opacity:1" id="path4901" d="M 31.33868,82.459533 L 33.447113,78.807613"/><path id="path4907" d="M 17.590685,68.748308 L 21.2426,66.639871" style="fill:none;fill-opacity:.75;fill-rule:evenodd;stroke:#282d30;stroke-width:1.00000107px;stroke-linecap:round;stroke-linejoin:round;stroke-opacity:1"/><path style="fill:none;fill-opacity:.75;fill-rule:evenodd;stroke:#282d30;stroke-width:1.00000095px;stroke-linecap:round;stroke-linejoin:round;stroke-opacity:1" id="path4913" d="M 12.540183,50.000043 L 16.757053,50.000041"/><path id="path4919" d="M 17.540467,31.23828 L 21.192387,33.346713" style="fill:none;fill-opacity:.75;fill-rule:evenodd;stroke:#282d30;stroke-width:1.00000143px;stroke-linecap:round;stroke-linejoin:round;stroke-opacity:1"/><path style="fill:none;fill-opacity:.75;fill-rule:evenodd;stroke:#282d30;stroke-width:1.00000107px;stroke-linecap:round;stroke-linejoin:round;stroke-opacity:1" id="path4925" d="M 31.251702,17.490285 L 33.360139,21.1422"/></g><g id="layer2"><path style="fill:url(#radialGradient11602);fill-opacity:1;fill-rule:nonzero;stroke:none;stroke-width:.1;stroke-linecap:round;stroke-linejoin:round;stroke-miterlimit:4;stroke-dasharray:none;stroke-dashoffset:0;stroke-opacity:1" id="use9785" d="M 28.487367 40.562798 A 1.2070918 1.2070918 0 1 1 26.073184,40.562798 A 1.2070918 1.2070918 0 1 1 28.487367 40.562798 z" transform="matrix(0.412361,0,0,0.412361,76.06967,29.27913)"/><path id="path13602" d="M 28.487367 40.562798 A 1.2070918 1.2070918 0 1 1 26.073184,40.562798 A 1.2070918 1.2070918 0 1 1 28.487367 40.562798 z" transform="matrix(0.412361,0,0,0.412361,75.44209,25.38973)" style="fill:url(#radialGradient13644);fill-opacity:1;fill-rule:nonzero;stroke:none;stroke-width:.1;stroke-linecap:round;stroke-linejoin:round;stroke-miterlimit:4;stroke-dasharray:none;stroke-dashoffset:0;stroke-opacity:1"/><path style="fill:url(#radialGradient13642);fill-opacity:1;fill-rule:nonzero;stroke:none;stroke-width:.1;stroke-linecap:round;stroke-linejoin:round;stroke-miterlimit:4;stroke-dasharray:none;stroke-dashoffset:0;stroke-opacity:1" id="path13604" d="M 28.487367 40.562798 A 1.2070918 1.2070918 0 1 1 26.073184,40.562798 A 1.2070918 1.2070918 0 1 1 28.487367 40.562798 z" transform="matrix(0.412361,0,0,0.412361,74.42833,21.59184)"/><path id="path13606" d="M 28.487367 40.562798 A 1.2070918 1.2070918 0 1 1 26.073184,40.562798 A 1.2070918 1.2070918 0 1 1 28.487367 40.562798 z" transform="matrix(0.412361,0,0,0.412361,73.01588,17.91769)" style="fill:url(#radialGradient13640);fill-opacity:1;fill-rule:nonzero;stroke:none;stroke-width:.1;stroke-linecap:round;stroke-linejoin:round;stroke-miterlimit:4;stroke-dasharray:none;stroke-dashoffset:0;stroke-opacity:1"/><path style="fill:url(#radialGradient13638);fill-opacity:1;fill-rule:nonzero;stroke:none;stroke-width:.1;stroke-linecap:round;stroke-linejoin:round;stroke-miterlimit:4;stroke-dasharray:none;stroke-dashoffset:0;stroke-opacity:1" id="path13608" d="M 28.487367 40.562798 A 1.2070918 1.2070918 0 1 1 26.073184,40.562798 A 1.2070918 1.2070918 0 1 1 28.487367 40.562798 z" transform="matrix(0.412361,0,0,0.412361,69.08579,11.14663)"/><path id="path13610" d="M 28.487367 40.562798 A 1.2070918 1.2070918 0 1 1 26.073184,40.562798 A 1.2070918 1.2070918 0 1 1 28.487367 40.562798 z" transform="matrix(0.412361,0,0,0.412361,66.61845,8.115808)" style="fill:url(#radialGradient13636);fill-opacity:1;fill-rule:nonzero;stroke:none;stroke-width:.1;stroke-linecap:round;stroke-linejoin:round;stroke-miterlimit:4;stroke-dasharray:none;stroke-dashoffset:0;stroke-opacity:1"/><path style="fill:url(#radialGradient13634);fill-opacity:1;fill-rule:nonzero;stroke:none;stroke-width:.1;stroke-linecap:round;stroke-linejoin:round;stroke-miterlimit:4;stroke-dasharray:none;stroke-dashoffset:0;stroke-opacity:1" id="path13612" d="M 28.487367 40.562798 A 1.2070918 1.2070918 0 1 1 26.073184,40.562798 A 1.2070918 1.2070918 0 1 1 28.487367 40.562798 z" transform="matrix(0.412361,0,0,0.412361,63.84403,5.331305)"/><path id="path13614" d="M 28.487367 40.562798 A 1.2070918 1.2070918 0 1 1 26.073184,40.562798 A 1.2070918 1.2070918 0 1 1 28.487367 40.562798 z" transform="matrix(0.412361,0,0,0.412361,60.77652,2.846262)" style="fill:url(#radialGradient13632);fill-opacity:1;fill-rule:nonzero;stroke:none;stroke-width:.1;stroke-linecap:round;stroke-linejoin:round;stroke-miterlimit:4;stroke-dasharray:none;stroke-dashoffset:0;stroke-opacity:1"/><path style="fill:url(#radialGradient13630);fill-opacity:1;fill-rule:nonzero;stroke:none;stroke-width:.1;stroke-linecap:round;stroke-linejoin:round;stroke-miterlimit:4;stroke-dasharray:none;stroke-dashoffset:0;stroke-opacity:1" id="path13616" d="M 28.487367 40.562798 A 1.2070918 1.2070918 0 1 1 26.073184,40.562798 A 1.2070918 1.2070918 0 1 1 28.487367 40.562798 z" transform="matrix(0.412361,0,0,0.412361,54.01917,-1.055227)"/><path id="path13618" d="M 28.487367 40.562798 A 1.2070918 1.2070918 0 1 1 26.073184,40.562798 A 1.2070918 1.2070918 0 1 1 28.487367 40.562798 z" transform="matrix(0.412361,0,0,0.412361,50.368,-2.464411)" style="fill:url(#radialGradient13628);fill-opacity:1;fill-rule:nonzero;stroke:none;stroke-width:.1;stroke-linecap:round;stroke-linejoin:round;stroke-miterlimit:4;stroke-dasharray:none;stroke-dashoffset:0;stroke-opacity:1"/><path style="fill:url(#radialGradient13626);fill-opacity:1;fill-rule:nonzero;stroke:none;stroke-width:.1;stroke-linecap:round;stroke-linejoin:round;stroke-miterlimit:4;stroke-dasharray:none;stroke-dashoffset:0;stroke-opacity:1" id="path13620" d="M 28.487367 40.562798 A 1.2070918 1.2070918 0 1 1 26.073184,40.562798 A 1.2070918 1.2070918 0 1 1 28.487367 40.562798 z" transform="matrix(0.412361,0,0,0.412361,46.60235,-3.468092)"/><path id="path13622" d="M 28.487367 40.562798 A 1.2070918 1.2070918 0 1 1 26.073184,40.562798 A 1.2070918 1.2070918 0 1 1 28.487367 40.562798 z" transform="matrix(0.412361,0,0,0.412361,42.66136,-4.090057)" style="fill:url(#radialGradient13624);fill-opacity:1;fill-rule:nonzero;stroke:none;stroke-width:.1;stroke-linecap:round;stroke-linejoin:round;stroke-miterlimit:4;stroke-dasharray:none;stroke-dashoffset:0;stroke-opacity:1"/><path id="path13646" d="M 28.487367 40.562798 A 1.2070918 1.2070918 0 1 1 26.073184,40.562798 A 1.2070918 1.2070918 0 1 1 28.487367 40.562798 z" transform="matrix(0.412361,0,0,0.412361,76.06537,37.09265)" style="fill:url(#radialGradient13648);fill-opacity:1;fill-rule:nonzero;stroke:none;stroke-width:.1;stroke-linecap:round;stroke-linejoin:round;stroke-miterlimit:4;stroke-dasharray:none;stroke-dashoffset:0;stroke-opacity:1"/><path style="fill:url(#radialGradient13652);fill-opacity:1;fill-rule:nonzero;stroke:none;stroke-width:.1;stroke-linecap:round;stroke-linejoin:round;stroke-miterlimit:4;stroke-dasharray:none;stroke-dashoffset:0;stroke-opacity:1" id="path13650" d="M 28.487367 40.562798 A 1.2070918 1.2070918 0 1 1 26.073184,40.562798 A 1.2070918 1.2070918 0 1 1 28.487367 40.562798 z" transform="matrix(0.412361,0,0,0.412361,75.46061,41.00724)"/><path id="path13654" d="M 28.487367 40.562798 A 1.2070918 1.2070918 0 1 1 26.073184,40.562798 A 1.2070918 1.2070918 0 1 1 28.487367 40.562798 z" transform="matrix(0.412361,0,0,0.412361,74.46455,44.75398)" style="fill:url(#radialGradient13656);fill-opacity:1;fill-rule:nonzero;stroke:none;stroke-width:.1;stroke-linecap:round;stroke-linejoin:round;stroke-miterlimit:4;stroke-dasharray:none;stroke-dashoffset:0;stroke-opacity:1"/><path style="fill:url(#radialGradient13660);fill-opacity:1;fill-rule:nonzero;stroke:none;stroke-width:.1;stroke-linecap:round;stroke-linejoin:round;stroke-miterlimit:4;stroke-dasharray:none;stroke-dashoffset:0;stroke-opacity:1" id="path13658" d="M 28.487367 40.562798 A 1.2070918 1.2070918 0 1 1 26.073184,40.562798 A 1.2070918 1.2070918 0 1 1 28.487367 40.562798 z" transform="matrix(0.412361,0,0,0.412361,73.07568,48.41773)"/><path id="path13662" d="M 28.487367 40.562798 A 1.2070918 1.2070918 0 1 1 26.073184,40.562798 A 1.2070918 1.2070918 0 1 1 28.487367 40.562798 z" transform="matrix(0.412361,0,0,0.412361,69.17049,55.20698)" style="fill:url(#radialGradient13664);fill-opacity:1;fill-rule:nonzero;stroke:none;stroke-width:.1;stroke-linecap:round;stroke-linejoin:round;stroke-miterlimit:4;stroke-dasharray:none;stroke-dashoffset:0;stroke-opacity:1"/><path style="fill:url(#radialGradient13668);fill-opacity:1;fill-rule:nonzero;stroke:none;stroke-width:.1;stroke-linecap:round;stroke-linejoin:round;stroke-miterlimit:4;stroke-dasharray:none;stroke-dashoffset:0;stroke-opacity:1" id="path13666" d="M 28.487367 40.562798 A 1.2070918 1.2070918 0 1 1 26.073184,40.562798 A 1.2070918 1.2070918 0 1 1 28.487367 40.562798 z" transform="matrix(0.412361,0,0,0.412361,66.70315,58.26388)"/><path id="path13670" d="M 28.487367 40.562798 A 1.2070918 1.2070918 0 1 1 26.073184,40.562798 A 1.2070918 1.2070918 0 1 1 28.487367 40.562798 z" transform="matrix(0.412361,0,0,0.412361,63.93087,61.04382)" style="fill:url(#radialGradient13672);fill-opacity:1;fill-rule:nonzero;stroke:none;stroke-width:.1;stroke-linecap:round;stroke-linejoin:round;stroke-miterlimit:4;stroke-dasharray:none;stroke-dashoffset:0;stroke-opacity:1"/><path style="fill:url(#radialGradient13676);fill-opacity:1;fill-rule:nonzero;stroke:none;stroke-width:.1;stroke-linecap:round;stroke-linejoin:round;stroke-miterlimit:4;stroke-dasharray:none;stroke-dashoffset:0;stroke-opacity:1" id="path13674" d="M 28.487367 40.562798 A 1.2070918 1.2070918 0 1 1 26.073184,40.562798 A 1.2070918 1.2070918 0 1 1 28.487367 40.562798 z" transform="matrix(0.412361,0,0,0.412361,60.89893,63.50558)"/><path id="path13678" d="M 28.487367 40.562798 A 1.2070918 1.2070918 0 1 1 26.073184,40.562798 A 1.2070918 1.2070918 0 1 1 28.487367 40.562798 z" transform="matrix(0.412361,0,0,0.412361,54.1033,67.4752)" style="fill:url(#radialGradient13680);fill-opacity:1;fill-rule:nonzero;stroke:none;stroke-width:.1;stroke-linecap:round;stroke-linejoin:round;stroke-miterlimit:4;stroke-dasharray:none;stroke-dashoffset:0;stroke-opacity:1"/><path style="fill:url(#radialGradient13684);fill-opacity:1;fill-rule:nonzero;stroke:none;stroke-width:.1;stroke-linecap:round;stroke-linejoin:round;stroke-miterlimit:4;stroke-dasharray:none;stroke-dashoffset:0;stroke-opacity:1" id="path13682" d="M 28.487367 40.562798 A 1.2070918 1.2070918 0 1 1 26.073184,40.562798 A 1.2070918 1.2070918 0 1 1 28.487367 40.562798 z" transform="matrix(0.412361,0,0,0.412361,50.45778,68.89285)"/><path id="path13686" d="M 28.487367 40.562798 A 1.2070918 1.2070918 0 1 1 26.073184,40.562798 A 1.2070918 1.2070918 0 1 1 28.487367 40.562798 z" transform="matrix(0.412361,0,0,0.412361,46.64718,69.92942)" style="fill:url(#radialGradient13688);fill-opacity:1;fill-rule:nonzero;stroke:none;stroke-width:.1;stroke-linecap:round;stroke-linejoin:round;stroke-miterlimit:4;stroke-dasharray:none;stroke-dashoffset:0;stroke-opacity:1"/><path style="fill:url(#radialGradient13692);fill-opacity:1;fill-rule:nonzero;stroke:none;stroke-width:.1;stroke-linecap:round;stroke-linejoin:round;stroke-miterlimit:4;stroke-dasharray:none;stroke-dashoffset:0;stroke-opacity:1" id="path13690" d="M 28.487367 40.562798 A 1.2070918 1.2070918 0 1 1 26.073184,40.562798 A 1.2070918 1.2070918 0 1 1 28.487367 40.562798 z" transform="matrix(0.412361,0,0,0.412361,42.77867,70.54601)"/><path id="path13694" d="M 28.487367 40.562798 A 1.2070918 1.2070918 0 1 1 26.073184,40.562798 A 1.2070918 1.2070918 0 1 1 28.487367 40.562798 z" transform="matrix(0.412361,0,0,0.412361,34.92423,70.551)" style="fill:url(#radialGradient13696);fill-opacity:1;fill-rule:nonzero;stroke:none;stroke-width:.1;stroke-linecap:round;stroke-linejoin:round;stroke-miterlimit:4;stroke-dasharray:none;stroke-dashoffset:0;stroke-opacity:1"/><path style="fill:url(#radialGradient13700);fill-opacity:1;fill-rule:nonzero;stroke:none;stroke-width:.1;stroke-linecap:round;stroke-linejoin:round;stroke-miterlimit:4;stroke-dasharray:none;stroke-dashoffset:0;stroke-opacity:1" id="path13698" d="M 28.487367 40.562798 A 1.2070918 1.2070918 0 1 1 26.073184,40.562798 A 1.2070918 1.2070918 0 1 1 28.487367 40.562798 z" transform="matrix(0.412361,0,0,0.412361,30.98303,69.94899)"/><path id="path13702" d="M 28.487367 40.562798 A 1.2070918 1.2070918 0 1 1 26.073184,40.562798 A 1.2070918 1.2070918 0 1 1 28.487367 40.562798 z" transform="matrix(0.412361,0,0,0.412361,27.2464,68.95371)" style="fill:url(#radialGradient13704);fill-opacity:1;fill-rule:nonzero;stroke:none;stroke-width:.1;stroke-linecap:round;stroke-linejoin:round;stroke-miterlimit:4;stroke-dasharray:none;stroke-dashoffset:0;stroke-opacity:1"/><path style="fill:url(#radialGradient13708);fill-opacity:1;fill-rule:nonzero;stroke:none;stroke-width:.1;stroke-linecap:round;stroke-linejoin:round;stroke-miterlimit:4;stroke-dasharray:none;stroke-dashoffset:0;stroke-opacity:1" id="path13706" d="M 28.487367 40.562798 A 1.2070918 1.2070918 0 1 1 26.073184,40.562798 A 1.2070918 1.2070918 0 1 1 28.487367 40.562798 z" transform="matrix(0.412361,0,0,0.412361,23.53831,67.54561)"/><path id="path13710" d="M 28.487367 40.562798 A 1.2070918 1.2070918 0 1 1 26.073184,40.562798 A 1.2070918 1.2070918 0 1 1 28.487367 40.562798 z" transform="matrix(0.412361,0,0,0.412361,16.74291,63.62887)" style="fill:url(#radialGradient13712);fill-opacity:1;fill-rule:nonzero;stroke:none;stroke-width:.1;stroke-linecap:round;stroke-linejoin:round;stroke-miterlimit:4;stroke-dasharray:none;stroke-dashoffset:0;stroke-opacity:1"/><path style="fill:url(#radialGradient13716);fill-opacity:1;fill-rule:nonzero;stroke:none;stroke-width:.1;stroke-linecap:round;stroke-linejoin:round;stroke-miterlimit:4;stroke-dasharray:none;stroke-dashoffset:0;stroke-opacity:1" id="path13714" d="M 28.487367 40.562798 A 1.2070918 1.2070918 0 1 1 26.073184,40.562798 A 1.2070918 1.2070918 0 1 1 28.487367 40.562798 z" transform="matrix(0.412361,0,0,0.412361,13.69063,61.16333)"/><path id="path13718" d="M 28.487367 40.562798 A 1.2070918 1.2070918 0 1 1 26.073184,40.562798 A 1.2070918 1.2070918 0 1 1 28.487367 40.562798 z" transform="matrix(0.412361,0,0,0.412361,10.90158,58.37239)" style="fill:url(#radialGradient13720);fill-opacity:1;fill-rule:nonzero;stroke:none;stroke-width:.1;stroke-linecap:round;stroke-linejoin:round;stroke-miterlimit:4;stroke-dasharray:none;stroke-dashoffset:0;stroke-opacity:1"/><path style="fill:url(#radialGradient13724);fill-opacity:1;fill-rule:nonzero;stroke:none;stroke-width:.1;stroke-linecap:round;stroke-linejoin:round;stroke-miterlimit:4;stroke-dasharray:none;stroke-dashoffset:0;stroke-opacity:1" id="path13722" d="M 28.487367 40.562798 A 1.2070918 1.2070918 0 1 1 26.073184,40.562798 A 1.2070918 1.2070918 0 1 1 28.487367 40.562798 z" transform="matrix(0.412361,0,0,0.412361,8.43805,55.34225)"/><path id="path13726" d="M 28.487367 40.562798 A 1.2070918 1.2070918 0 1 1 26.073184,40.562798 A 1.2070918 1.2070918 0 1 1 28.487367 40.562798 z" transform="matrix(0.412361,0,0,0.412361,4.488068,48.53686)" style="fill:url(#radialGradient13728);fill-opacity:1;fill-rule:nonzero;stroke:none;stroke-width:.1;stroke-linecap:round;stroke-linejoin:round;stroke-miterlimit:4;stroke-dasharray:none;stroke-dashoffset:0;stroke-opacity:1"/><path style="fill:url(#radialGradient13732);fill-opacity:1;fill-rule:nonzero;stroke:none;stroke-width:.1;stroke-linecap:round;stroke-linejoin:round;stroke-miterlimit:4;stroke-dasharray:none;stroke-dashoffset:0;stroke-opacity:1" id="path13730" d="M 28.487367 40.562798 A 1.2070918 1.2070918 0 1 1 26.073184,40.562798 A 1.2070918 1.2070918 0 1 1 28.487367 40.562798 z" transform="matrix(0.412361,0,0,0.412361,3.064011,44.86091)"/><path id="path13734" d="M 28.487367 40.562798 A 1.2070918 1.2070918 0 1 1 26.073184,40.562798 A 1.2070918 1.2070918 0 1 1 28.487367 40.562798 z" transform="matrix(0.412361,0,0,0.412361,2.044687,41.0666)" style="fill:url(#radialGradient13736);fill-opacity:1;fill-rule:nonzero;stroke:none;stroke-width:.1;stroke-linecap:round;stroke-linejoin:round;stroke-miterlimit:4;stroke-dasharray:none;stroke-dashoffset:0;stroke-opacity:1"/><path style="fill:url(#radialGradient13740);fill-opacity:1;fill-rule:nonzero;stroke:none;stroke-width:.1;stroke-linecap:round;stroke-linejoin:round;stroke-miterlimit:4;stroke-dasharray:none;stroke-dashoffset:0;stroke-opacity:1" id="path13738" d="M 28.487367 40.562798 A 1.2070918 1.2070918 0 1 1 26.073184,40.562798 A 1.2070918 1.2070918 0 1 1 28.487367 40.562798 z" transform="matrix(0.412361,0,0,0.412361,1.431589,37.20404)"/><path id="path13742" d="M 28.487367 40.562798 A 1.2070918 1.2070918 0 1 1 26.073184,40.562798 A 1.2070918 1.2070918 0 1 1 28.487367 40.562798 z" transform="matrix(0.412361,0,0,0.412361,1.419965,29.35357)" style="fill:url(#radialGradient13744);fill-opacity:1;fill-rule:nonzero;stroke:none;stroke-width:.1;stroke-linecap:round;stroke-linejoin:round;stroke-miterlimit:4;stroke-dasharray:none;stroke-dashoffset:0;stroke-opacity:1"/><path style="fill:url(#radialGradient13748);fill-opacity:1;fill-rule:nonzero;stroke:none;stroke-width:.1;stroke-linecap:round;stroke-linejoin:round;stroke-miterlimit:4;stroke-dasharray:none;stroke-dashoffset:0;stroke-opacity:1" id="path13746" d="M 28.487367 40.562798 A 1.2070918 1.2070918 0 1 1 26.073184,40.562798 A 1.2070918 1.2070918 0 1 1 28.487367 40.562798 z" transform="matrix(0.412361,0,0,0.412361,2.040072,25.41147)"/><path id="path13750" d="M 28.487367 40.562798 A 1.2070918 1.2070918 0 1 1 26.073184,40.562798 A 1.2070918 1.2070918 0 1 1 28.487367 40.562798 z" transform="matrix(0.412361,0,0,0.412361,3.046088,21.65151)" style="fill:url(#radialGradient13752);fill-opacity:1;fill-rule:nonzero;stroke:none;stroke-width:.1;stroke-linecap:round;stroke-linejoin:round;stroke-miterlimit:4;stroke-dasharray:none;stroke-dashoffset:0;stroke-opacity:1"/><path style="fill:url(#radialGradient13756);fill-opacity:1;fill-rule:nonzero;stroke:none;stroke-width:.1;stroke-linecap:round;stroke-linejoin:round;stroke-miterlimit:4;stroke-dasharray:none;stroke-dashoffset:0;stroke-opacity:1" id="path13754" d="M 28.487367 40.562798 A 1.2070918 1.2070918 0 1 1 26.073184,40.562798 A 1.2070918 1.2070918 0 1 1 28.487367 40.562798 z" transform="matrix(0.412361,0,0,0.412361,4.455927,17.96558)"/><path id="path13758" d="M 28.487367 40.562798 A 1.2070918 1.2070918 0 1 1 26.073184,40.562798 A 1.2070918 1.2070918 0 1 1 28.487367 40.562798 z" transform="matrix(0.412361,0,0,0.412361,8.385328,11.17217)" style="fill:url(#radialGradient13760);fill-opacity:1;fill-rule:nonzero;stroke:none;stroke-width:.1;stroke-linecap:round;stroke-linejoin:round;stroke-miterlimit:4;stroke-dasharray:none;stroke-dashoffset:0;stroke-opacity:1"/><path style="fill:url(#radialGradient13764);fill-opacity:1;fill-rule:nonzero;stroke:none;stroke-width:.1;stroke-linecap:round;stroke-linejoin:round;stroke-miterlimit:4;stroke-dasharray:none;stroke-dashoffset:0;stroke-opacity:1" id="path13762" d="M 28.487367 40.562798 A 1.2070918 1.2070918 0 1 1 26.073184,40.562798 A 1.2070918 1.2070918 0 1 1 28.487367 40.562798 z" transform="matrix(0.412361,0,0,0.412361,10.85727,8.124483)"/><path id="path13766" d="M 28.487367 40.562798 A 1.2070918 1.2070918 0 1 1 26.073184,40.562798 A 1.2070918 1.2070918 0 1 1 28.487367 40.562798 z" transform="matrix(0.412361,0,0,0.412361,13.63609,5.353387)" style="fill:url(#radialGradient13768);fill-opacity:1;fill-rule:nonzero;stroke:none;stroke-width:.1;stroke-linecap:round;stroke-linejoin:round;stroke-miterlimit:4;stroke-dasharray:none;stroke-dashoffset:0;stroke-opacity:1"/><path style="fill:url(#radialGradient13772);fill-opacity:1;fill-rule:nonzero;stroke:none;stroke-width:.1;stroke-linecap:round;stroke-linejoin:round;stroke-miterlimit:4;stroke-dasharray:none;stroke-dashoffset:0;stroke-opacity:1" id="path13770" d="M 28.487367 40.562798 A 1.2070918 1.2070918 0 1 1 26.073184,40.562798 A 1.2070918 1.2070918 0 1 1 28.487367 40.562798 z" transform="matrix(0.412361,0,0,0.412361,16.69023,2.875173)"/><path id="path13774" d="M 28.487367 40.562798 A 1.2070918 1.2070918 0 1 1 26.073184,40.562798 A 1.2070918 1.2070918 0 1 1 28.487367 40.562798 z" transform="matrix(0.412361,0,0,0.412361,23.48873,-1.057035)" style="fill:url(#radialGradient13776);fill-opacity:1;fill-rule:nonzero;stroke:none;stroke-width:.1;stroke-linecap:round;stroke-linejoin:round;stroke-miterlimit:4;stroke-dasharray:none;stroke-dashoffset:0;stroke-opacity:1"/><path style="fill:url(#radialGradient13780);fill-opacity:1;fill-rule:nonzero;stroke:none;stroke-width:.1;stroke-linecap:round;stroke-linejoin:round;stroke-miterlimit:4;stroke-dasharray:none;stroke-dashoffset:0;stroke-opacity:1" id="path13778" d="M 28.487367 40.562798 A 1.2070918 1.2070918 0 1 1 26.073184,40.562798 A 1.2070918 1.2070918 0 1 1 28.487367 40.562798 z" transform="matrix(0.412361,0,0,0.412361,27.16295,-2.46806)"/><path id="path13782" d="M 28.487367 40.562798 A 1.2070918 1.2070918 0 1 1 26.073184,40.562798 A 1.2070918 1.2070918 0 1 1 28.487367 40.562798 z" transform="matrix(0.412361,0,0,0.412361,30.94519,-3.481573)" style="fill:url(#radialGradient13784);fill-opacity:1;fill-rule:nonzero;stroke:none;stroke-width:.1;stroke-linecap:round;stroke-linejoin:round;stroke-miterlimit:4;stroke-dasharray:none;stroke-dashoffset:0;stroke-opacity:1"/><path style="fill:url(#radialGradient13788);fill-opacity:1;fill-rule:nonzero;stroke:none;stroke-width:.1;stroke-linecap:round;stroke-linejoin:round;stroke-miterlimit:4;stroke-dasharray:none;stroke-dashoffset:0;stroke-opacity:1" id="path13786" d="M 28.487367 40.562798 A 1.2070918 1.2070918 0 1 1 26.073184,40.562798 A 1.2070918 1.2070918 0 1 1 28.487367 40.562798 z" transform="matrix(0.412361,0,0,0.412361,34.8199,-4.095463)"/></g></svg>