<svg xmlns="http://www.w3.org/2000/svg" xmlns:cc="http://web.resource.org/cc/" xmlns:svg="http://www.w3.org/2000/svg" id="svg2" width="100" height="100" version="1.0"><defs id="defs4"><linearGradient id="linearGradient2202"><stop style="stop-color:#a5adad;stop-opacity:1" id="stop2204" offset="0"/><stop style="stop-color:#e8f4ed;stop-opacity:1" id="stop2206" offset="1"/></linearGradient></defs><metadata id="metadata7"/><g id="layer1"><path style="opacity:1;fill:#dde5f2;fill-opacity:.24705882;fill-rule:nonzero;stroke:none;stroke-width:.03849226;stroke-linecap:square;stroke-linejoin:miter;stroke-miterlimit:4;stroke-dasharray:none;stroke-dashoffset:0;stroke-opacity:1" id="path1327" d="M 49.03125 9.9375 C 27.593602 10.481231 10.303935 27.933903 10.03125 49.4375 C 10.029069 49.609529 10.03125 49.764957 10.03125 49.9375 C 10.03125 50.110043 10.029069 50.296721 10.03125 50.46875 C 10.097014 55.654824 11.168692 60.592286 13.03125 65.125 C 21.688245 32.263585 47.366788 18.941146 66.71875 13.5625 C 61.934495 11.363025 56.667538 10.07887 51.09375 9.9375 L 49.03125 9.9375 z M 89.96875 47.125 C 83.607127 75.402465 61.667389 85.739963 42.375 89.21875 C 44.696552 89.670506 47.08552 89.937736 49.53125 89.96875 L 50.5625 89.96875 C 72.066101 89.696064 89.518769 72.406394 90.0625 50.96875 C 90.0712 50.625748 90.0625 50.282587 90.0625 49.9375 C 90.0625 49.592413 90.0712 49.249252 90.0625 48.90625 C 90.047276 48.305996 90.010175 47.718429 89.96875 47.125 z"/></g></svg>